<?xml version="1.0" encoding="utf-8"?>
<!-- Generator: Adobe Illustrator 22.1.0, SVG Export Plug-In . SVG Version: 6.00 Build 0)  -->
<svg version="1.1" id="圖層_1" xmlns="http://www.w3.org/2000/svg" xmlns:xlink="http://www.w3.org/1999/xlink" x="0px" y="0px"
	 viewBox="0 0 51.5 54" style="enable-background:new 0 0 51.5 54;" xml:space="preserve">
<g>
	<path d="M36.9,0H9C7.1,0,5.6,1.5,5.6,3.4v47.2C5.6,52.5,7.1,54,9,54h27.9c1.9,0,3.4-1.5,3.4-3.4V3.4C40.4,1.5,38.8,0,36.9,0z
		 M7.3,8.6h31.4v35.7H7.3V8.6z M9,1.7h27.9c0.9,0,1.7,0.8,1.7,1.7v4H7.3v-4C7.3,2.5,8.1,1.7,9,1.7z M36.9,52.3H9
		c-0.9,0-1.7-0.8-1.7-1.7v-5.1h31.4v5.1C38.6,51.5,37.9,52.3,36.9,52.3z"/>
	<path d="M23,46.2c-1.5,0-2.8,1.3-2.8,2.8c0,1.5,1.3,2.8,2.8,2.8s2.8-1.3,2.8-2.8C25.8,47.5,24.5,46.2,23,46.2z M23,50.7
		c-0.9,0-1.7-0.7-1.7-1.7c0-0.9,0.7-1.7,1.7-1.7c0.9,0,1.7,0.7,1.7,1.7C24.6,49.9,23.9,50.7,23,50.7z"/>
	<path d="M19.1,5.4h7.8c0.3,0,0.6-0.3,0.6-0.6s-0.3-0.6-0.6-0.6h-7.8c-0.3,0-0.6,0.3-0.6,0.6S18.8,5.4,19.1,5.4z"/>
	<path d="M17,5.4c0.1,0,0.3-0.1,0.4-0.2c0.1-0.1,0.2-0.3,0.2-0.4c0-0.2-0.1-0.3-0.2-0.4c-0.1-0.1-0.3-0.2-0.4-0.2
		c-0.2,0-0.3,0.1-0.4,0.2c-0.1,0.1-0.2,0.3-0.2,0.4c0,0.2,0.1,0.3,0.2,0.4C16.7,5.4,16.9,5.4,17,5.4z"/>
</g>
</svg>
