<svg id="圖層_1" data-name="圖層 1" xmlns="http://www.w3.org/2000/svg" viewBox="0 0 987.76 125.36"><defs><style>.cls-1{fill:#fff;}</style></defs><title>LOGO</title><path class="cls-1" d="M237.92-203.13a20.76,20.76,0,0,1,2.15,5.09,23.27,23.27,0,0,1,.94,6.64q0,6.72-2.83,9.55A10.41,10.41,0,0,1,230.5-179H194.32v19.55h37.73a16.76,16.76,0,0,1,2.34,5,22.79,22.79,0,0,1,.94,6.57q0,6.54-2.85,9.39a10.36,10.36,0,0,1-7.66,2.83H194.65v36.38a49,49,0,0,1-5.89,1,61.49,61.49,0,0,1-8,.53,36.31,36.31,0,0,1-7-.61,12.19,12.19,0,0,1-5.09-2.16,9.25,9.25,0,0,1-3.1-4.31,21.11,21.11,0,0,1-1-7.23v-75a14.9,14.9,0,0,1,13.67-16,13.18,13.18,0,0,1,2.35,0Z" transform="translate(-18.24 221.22)"/><path class="cls-1" d="M251.7-205.71a15.17,15.17,0,0,1,4.4-11,17.36,17.36,0,0,1,23.27,0,16.07,16.07,0,0,1,0,22,17.36,17.36,0,0,1-23.27,0A15.21,15.21,0,0,1,251.7-205.71ZM282.38-98.86c-1.31.23-3.18.55-5.6.94a45.87,45.87,0,0,1-7.49.61,41,41,0,0,1-6.82-.51,11.61,11.61,0,0,1-5.07-2.08,9.85,9.85,0,0,1-3.2-4.21,18.13,18.13,0,0,1-1.12-7v-70.14c1.27-.24,3.12-.55,5.6-.95a44.89,44.89,0,0,1,7.5-.6,40.73,40.73,0,0,1,6.8.51,11.64,11.64,0,0,1,5.09,2.08,9.86,9.86,0,0,1,3.19,4.22,18.43,18.43,0,0,1,1.12,7Z" transform="translate(-18.24 221.22)"/><path class="cls-1" d="M354.07-151.76a9.66,9.66,0,0,0-3-7.87,12.43,12.43,0,0,0-8.19-2.49,27.77,27.77,0,0,0-6.8.84,17.54,17.54,0,0,0-5.78,2.6v59.8a40,40,0,0,1-5.43,1,57.75,57.75,0,0,1-7.66.51,41.05,41.05,0,0,1-6.82-.51,11.81,11.81,0,0,1-5.09-2.08,9.88,9.88,0,0,1-3.18-4.21,18.13,18.13,0,0,1-1.12-7v-51.69a13.23,13.23,0,0,1,2-7.56,20.47,20.47,0,0,1,5.43-5.35,48.49,48.49,0,0,1,14.74-6.72,70.5,70.5,0,0,1,19.65-2.6q19.49,0,30,8.53t10.51,23.7v54a39.87,39.87,0,0,1-5.42,1,57.9,57.9,0,0,1-7.67.51,41.05,41.05,0,0,1-6.82-.51,11.86,11.86,0,0,1-5.09-2.08,9.88,9.88,0,0,1-3.18-4.21,18.13,18.13,0,0,1-1.12-7Z" transform="translate(-18.24 221.22)"/><path class="cls-1" d="M397.85-140.56a51.49,51.49,0,0,1,3.44-19.65,37.52,37.52,0,0,1,9.57-13.88,39.34,39.34,0,0,1,14.31-8.19A57,57,0,0,1,442.85-185a37,37,0,0,1,6.73.61,26.54,26.54,0,0,1,5.32,1.46V-210.8a45.36,45.36,0,0,1,5.52-1.12,48.17,48.17,0,0,1,7.77-.61,43.06,43.06,0,0,1,6.8.51,11.66,11.66,0,0,1,5.08,2.09,9.22,9.22,0,0,1,3.11,4.2,19.78,19.78,0,0,1,1,7v81.67a14.67,14.67,0,0,1-7.58,12.93,52.4,52.4,0,0,1-12.92,5.78A67.33,67.33,0,0,1,425.34-99a40.45,40.45,0,0,1-15-9,38.35,38.35,0,0,1-9.32-14A50.93,50.93,0,0,1,397.85-140.56Zm48.93-21.62q-9.27,0-14.3,5.33c-3.32,3.57-5,9-5,16.21s1.55,12.5,4.65,16.11a16.76,16.76,0,0,0,13.45,5.43,15.56,15.56,0,0,0,5.6-1,12.58,12.58,0,0,0,3.93-2.16V-160a15.71,15.71,0,0,0-8.34-2.06Z" transform="translate(-18.24 221.22)"/><path class="cls-1" d="M534.33-179a22.6,22.6,0,0,1-2.24-5.17,23,23,0,0,1-1-6.9c0-4.48,1-7.68,3-9.65a10.83,10.83,0,0,1,7.86-2.93h75.15a22.17,22.17,0,0,1,2.24,5.17,22.75,22.75,0,0,1,1,6.9q0,6.72-3,9.65a10.78,10.78,0,0,1-7.86,2.93H590.34v79.63a49,49,0,0,1-5.89,1,61.49,61.49,0,0,1-8,.53,36.31,36.31,0,0,1-7-.61,12.19,12.19,0,0,1-5.09-2.16,9.27,9.27,0,0,1-3.1-4.3,21.17,21.17,0,0,1-1-7.24v-66.81Z" transform="translate(-18.24 221.22)"/><path class="cls-1" d="M631.2-205.71a15.09,15.09,0,0,1,4.4-11,17.31,17.31,0,0,1,23.25,0,16,16,0,0,1,0,22,17.33,17.33,0,0,1-23.25,0A15.13,15.13,0,0,1,631.2-205.71ZM661.87-98.86c-1.31.23-3.17.55-5.6.94a44.91,44.91,0,0,1-7.5.61,40.73,40.73,0,0,1-6.8-.51,11.81,11.81,0,0,1-5.09-2.08,9.83,9.83,0,0,1-3.19-4.21,18.51,18.51,0,0,1-1.12-7v-70.14c1.31-.24,3.18-.55,5.6-.95a45.1,45.1,0,0,1,7.51-.6,40.73,40.73,0,0,1,6.8.51,11.69,11.69,0,0,1,5.09,2.08,9.76,9.76,0,0,1,3.18,4.22,18,18,0,0,1,1.12,7Z" transform="translate(-18.24 221.22)"/><path class="cls-1" d="M727.71-161.94a24.63,24.63,0,0,0-8.2,1.37,19.25,19.25,0,0,0-6.72,4.07,19.67,19.67,0,0,0-4.56,6.62,23.24,23.24,0,0,0-1.73,9.32q0,10.67,6.14,16a21.73,21.73,0,0,0,14.89,5.35,29.53,29.53,0,0,0,9-1.2,53.57,53.57,0,0,0,6.72-2.59,17.52,17.52,0,0,1,5.17,5.26,12.78,12.78,0,0,1,1.73,6.8,12.07,12.07,0,0,1-6.72,11C738.91-97.39,732.7-96,724.78-96a57.57,57.57,0,0,1-19.65-3.18,44.23,44.23,0,0,1-15.07-9,39.39,39.39,0,0,1-9.83-13.87A45.34,45.34,0,0,1,676.79-140a50.08,50.08,0,0,1,3.69-19.91,38.93,38.93,0,0,1,10.09-14,43.21,43.21,0,0,1,14.74-8.27A56.18,56.18,0,0,1,723-185q12.4,0,19.14,4.48a13.42,13.42,0,0,1,6.72,11.56,12.53,12.53,0,0,1-1.55,6.11,21.24,21.24,0,0,1-3.61,4.91,59.14,59.14,0,0,0-7.08-2.67A29.51,29.51,0,0,0,727.71-161.94Z" transform="translate(-18.24 221.22)"/><path class="cls-1" d="M846.62-113.86a21.53,21.53,0,0,1-4.73,12.4,14.36,14.36,0,0,1-11.3,4.33,18.38,18.38,0,0,1-9.83-2.67,38.16,38.16,0,0,1-9.31-9.06l-17.06-21.37v31.45c-1.31.23-3.18.55-5.6.94a46.11,46.11,0,0,1-7.51.61,41.83,41.83,0,0,1-6.8-.51,11.74,11.74,0,0,1-5-2.16,9.83,9.83,0,0,1-3.19-4.21,18.51,18.51,0,0,1-1.12-7v-99.78a53.52,53.52,0,0,1,5.61-1.12,45.66,45.66,0,0,1,7.48-.61,43.14,43.14,0,0,1,6.82.51,11.82,11.82,0,0,1,5.09,2.09,9.8,9.8,0,0,1,3.19,4.2,18.56,18.56,0,0,1,1.12,7v45.49l29.63-30.34a23.92,23.92,0,0,1,14.39,3.93,11.92,11.92,0,0,1,5.44,10,12.81,12.81,0,0,1-.87,4.74,16.81,16.81,0,0,1-2.67,4.38,37.42,37.42,0,0,1-4.66,4.76l-6.64,5.76-10,8.62Z" transform="translate(-18.24 221.22)"/><path class="cls-1" d="M900.92-95.93A60.24,60.24,0,0,1,882-98.78a42.67,42.67,0,0,1-15.15-8.53,39.25,39.25,0,0,1-10.18-14.31A50.52,50.52,0,0,1,853-141.76a47.13,47.13,0,0,1,3.69-19.65,38.58,38.58,0,0,1,9.83-13.45,39.1,39.1,0,0,1,13.76-7.76,51.68,51.68,0,0,1,15.85-2.49,48,48,0,0,1,16.63,2.75,40.22,40.22,0,0,1,12.93,7.58,34.15,34.15,0,0,1,8.45,11.56,35.46,35.46,0,0,1,3,14.64,11.8,11.8,0,0,1-3.26,9,16.36,16.36,0,0,1-9.14,3.93l-42.57,6.39a14.36,14.36,0,0,0,7.74,8.53,30.74,30.74,0,0,0,13.45,2.83,47.94,47.94,0,0,0,13.36-1.81A42,42,0,0,0,927-124a15,15,0,0,1,4.66,4.84,12.68,12.68,0,0,1-4.14,17.44c-.39.24-.8.46-1.21.66a38.82,38.82,0,0,1-12.42,3.93A85.44,85.44,0,0,1,900.92-95.93Zm-4.83-67.72a16.92,16.92,0,0,0-7.16,1.37,14.49,14.49,0,0,0-4.91,3.54,14.67,14.67,0,0,0-2.85,4.81,20.19,20.19,0,0,0-1.12,5.43l29.48-4.82a13,13,0,0,0-3.8-6.89,12.65,12.65,0,0,0-9.64-3.44Z" transform="translate(-18.24 221.22)"/><path class="cls-1" d="M980.53-127.47a7.12,7.12,0,0,0,2.85,6.38,14.36,14.36,0,0,0,8,2,32.73,32.73,0,0,0,5.32-.44,27,27,0,0,0,4.84-1.12,21.4,21.4,0,0,1,2.67,4.23,12.85,12.85,0,0,1,1.12,5.6,13.32,13.32,0,0,1-4.91,10.69c-3.28,2.75-9,4.13-17.32,4.13q-15.17,0-23.36-6.88t-8.18-22.42v-73.83q2-.5,5.43-1.13a45.74,45.74,0,0,1,7.48-.6,22,22,0,0,1,11.8,2.67c2.81,1.79,4.22,5.54,4.22,11.3v11h22.58a30.18,30.18,0,0,1,2,4.74,20.28,20.28,0,0,1,.94,6.29c0,3.93-.89,6.93-2.67,8.7a9.67,9.67,0,0,1-7.16,2.68H980.45Z" transform="translate(-18.24 221.22)"/><path class="cls-1" d="M66-183.33l39.41,39.41L81.78-120.27,42.37-159.68Zm37.44,61.09a8.38,8.38,0,0,0,0,11.83L91.64-98.59a8.36,8.36,0,0,1-11.83,0L20.69-157.71a8.38,8.38,0,0,1,0-11.83l11.82-11.82a8.38,8.38,0,0,0,11.83,0,8.38,8.38,0,0,0,0-11.83L56.16-205A8.36,8.36,0,0,1,68-205l59.12,59.12a8.36,8.36,0,0,1,0,11.83l-11.82,11.82A8.38,8.38,0,0,0,103.46-122.24Zm6.9-18.72a4.18,4.18,0,0,0,0-5.91L69-188.26a4.18,4.18,0,0,0-5.91,0L37.44-162.64a4.18,4.18,0,0,0,0,5.91l41.39,41.39a4.18,4.18,0,0,0,5.91,0Z" transform="translate(-18.24 221.22)"/></svg>