<svg xmlns="http://www.w3.org/2000/svg" viewBox="0 0 52.76 52.27"><defs><style>.cls-1{fill:#fff;}</style></defs><title>資產 2</title><g id="圖層_2" data-name="圖層 2"><g id="圖層_1-2" data-name="圖層 1"><path class="cls-1" d="M35.76,27.31a1.57,1.57,0,0,0,1.56-1.57,1.55,1.55,0,0,0-1.56-1.55H6l6.64-6.5a1.38,1.38,0,0,0,0-2.05,1.56,1.56,0,0,0-2.21,0L1.33,24.76a1.39,1.39,0,0,0-.4.4l-.47.47A1.53,1.53,0,0,0,0,26.73a1.51,1.51,0,0,0,.46,1.1l10,10a1.56,1.56,0,0,0,2.21-.06,1.65,1.65,0,0,0,0-2.28l-8-8.17Z"/><path class="cls-1" d="M52.76,46.25V7.44c0-3.74-3-7.44-6.82-7.44H25.65a7.7,7.7,0,0,0-7.22,7.44v9.24a1.56,1.56,0,0,0,3.12,0V7.44a4.62,4.62,0,0,1,4.1-4.32H45.94c2.06,0,3.7,2.29,3.7,4.32V46.25c0,2.08-1.72,2.9-3.7,2.9H25.65c-1.84,0-4.1-.69-4.1-2.9V37a1.56,1.56,0,1,0-3.12,0v9.28c0,3.66,3.26,6,7.22,6H45.94c4,0,6.82-2.48,6.82-6Z"/></g></g></svg>