<?xml version="1.0" encoding="utf-8"?>
<!-- Generator: Adobe Illustrator 22.1.0, SVG Export Plug-In . SVG Version: 6.00 Build 0)  -->
<svg version="1.1" id="圖層_1" xmlns="http://www.w3.org/2000/svg" xmlns:xlink="http://www.w3.org/1999/xlink" x="0px" y="0px"
	 viewBox="0 0 50.9 40.8" style="enable-background:new 0 0 50.9 40.8;" xml:space="preserve">
<path d="M41.8,5.5H9.1c-2.3,0-4.3,1.9-4.3,4.3v21.3c0,2.3,1.9,4.3,4.3,4.3h32.7c2.3,0,4.3-1.9,4.3-4.3V9.8C46,7.4,44.1,5.5,41.8,5.5
	z M34,20.4C34,20.4,34,20.4,34,20.4l10.3-8.1c0,0,0,0,0,0l0,0c0,0,0,0,0,0.1v18c0,0,0,0.1-0.1,0.1c0,0,0,0,0,0L34,20.4
	C34,20.4,34,20.4,34,20.4z M6.8,32.4l11.6-10.9c0,0,0,0,0,0l4,3c0.9,0.7,2,1.1,3.1,1.1c1.1,0,2.3-0.4,3.2-1.1l3.9-3.1l0.1,0L44,32.4
	c0,0,0,0.1,0,0.1c-0.5,0.8-1.4,1.3-2.3,1.3H9.1C8.2,33.7,7.3,33.3,6.8,32.4C6.8,32.4,6.8,32.4,6.8,32.4z M9.1,7.1h32.7
	c1.5,0,2.7,1.2,2.7,2.7v0.4c0,0,0,0,0,0.1L27.8,23.3c-1.2,1-3.1,1-4.3,0l-17-13.1c0,0,0,0,0-0.1V9.8C6.4,8.3,7.6,7.1,9.1,7.1z
	 M6.4,12.3C6.4,12.3,6.4,12.3,6.4,12.3C6.5,12.3,6.5,12.3,6.4,12.3l10.7,8.1c0,0,0,0,0,0.1c0,0,0,0,0,0.1l-10.6,10l0.1,0.2
	c0,0,0,0,0,0l-0.2-0.1c0,0,0,0,0-0.1V12.3z"/>
</svg>
