<svg xmlns="http://www.w3.org/2000/svg" viewBox="0 0 52.29 52.27"><defs><style>.cls-1{fill:#fff;}</style></defs><title>資產 3</title><g id="圖層_2" data-name="圖層 2"><g id="圖層_1-2" data-name="圖層 1"><path class="cls-1" d="M44.64,7.65A26.15,26.15,0,0,0,1.55,35a1.54,1.54,0,0,0,.8.88A1.56,1.56,0,0,0,4.47,34a23,23,0,1,1,38.39,8l-.16.17-.25.27a23.08,23.08,0,0,1-32.6,0v-.08c0-.21,0-.41,0-.61v-.21c0-.13,0-.26,0-.4l.18-1.45c0-.11,0-.22,0-.33l.07-.33.86-2.84L12.2,33.9,14,31.51l1.84-1.76c.09-.07.18-.15.35-.27l1.09-.78.5-.31a5.39,5.39,0,0,1,.52-.3L19,27.7a10.66,10.66,0,0,0,14.25,0,16.6,16.6,0,0,1,7.81,8.11,1.55,1.55,0,1,0,2.83-1.25,19.4,19.4,0,0,0-8.61-9.3A10.69,10.69,0,0,0,26.15,9a1.55,1.55,0,1,0,0,3.1,7.58,7.58,0,1,1-7.61,7.6,7.53,7.53,0,0,1,2.26-5.4,1.55,1.55,0,0,0-2.18-2.2A10.7,10.7,0,0,0,17,25.26l-.16.08-1.21.72L13.4,27.73l-1.9,1.9.38.33-.48-.21-1,1.25c-.11.15-.21.3-.33.48l-.06.08c-.13.19-.25.38-.37.58l-.08.12.44.26-.51-.14-.2.34L9.16,33,9,33.32,7.63,36.57l-.52,2L6.8,40.93c0,.16,0,.32,0,.56v.15c0,.24,0,.48,0,.72s0,.5,0,.78a1,1,0,0,0,0,.28,1.08,1.08,0,0,0,.08.26,1.66,1.66,0,0,0,.14.25,1.3,1.3,0,0,0,.16.21l.16.17.31.32a26.18,26.18,0,0,0,37,0l.33-.35.14-.14a26.14,26.14,0,0,0-.46-36.49ZM16.18,26.31ZM8.44,35.75Zm-.89,8Z"/></g></g></svg>