<?xml version="1.0" encoding="utf-8"?>
<!-- Generator: Adobe Illustrator 22.1.0, SVG Export Plug-In . SVG Version: 6.00 Build 0)  -->
<svg version="1.1" id="Capa_1" xmlns="http://www.w3.org/2000/svg" xmlns:xlink="http://www.w3.org/1999/xlink" x="0px" y="0px"
	 viewBox="0 0 69.7 53.8" style="enable-background:new 0 0 69.7 53.8;" xml:space="preserve">
<path d="M45.6,34.5l-2.3-0.8l1.7-1.2c5.2-3.2,8.4-8.7,8.4-14.9c0-4.7-1.8-9.1-5.1-12.4C44.9,1.8,40.5,0,35.8,0
	c-9.7,0-17.5,7.9-17.5,17.5c0,6.1,3.2,11.7,8.4,14.9l2.1,1.2l-2.2,0.8c-7.9,2.9-14,9.4-16.7,17.3H9.9V52c-0.2,0.6-0.4,1.2-0.5,1.8
	h0.5h1.8h48.8h0.7h1.6C60.6,44.8,54.2,37.5,45.6,34.5z M20.8,17.5c0-8.4,6.9-15.3,15.3-15.3s15.3,6.9,15.3,15.3s-6.9,15.3-15.3,15.3
	S20.8,25.9,20.8,17.5z M12.3,51.8C15.8,42,25.4,35,36.1,35c10.7,0,20.4,6.9,23.8,16.8H12.3z"/>
</svg>
