<?xml version="1.0" encoding="utf-8"?>
<!-- Generator: Adobe Illustrator 22.1.0, SVG Export Plug-In . SVG Version: 6.00 Build 0)  -->
<svg version="1.1" id="圖層_1" xmlns="http://www.w3.org/2000/svg" xmlns:xlink="http://www.w3.org/1999/xlink" x="0px" y="0px"
	 viewBox="0 0 86 117" style="enable-background:new 0 0 86 117;" xml:space="preserve">
<style type="text/css">
	.st0{fill:#FFFFFF;}
</style>
<title>lollll</title>
<path class="st0" d="M0,72.3c-0.1-6.7,1-13.4,3.5-19.7c2.1-5.3,5.4-10,9.6-13.9c4.1-3.7,9-6.5,14.3-8.2C33,28.8,39,27.9,45,27.9
	c2.3,0,4.5,0.2,6.7,0.6c1.8,0.3,3.6,0.8,5.3,1.5V2.1c1.8-0.5,3.7-0.8,5.5-1.1c2.6-0.4,5.2-0.6,7.8-0.6c2.3,0,4.6,0.2,6.8,0.5
	c1.8,0.3,3.6,1,5.1,2.1c1.4,1.1,2.5,2.5,3.1,4.2c0.8,2.3,1.1,4.6,1,7v81.6c0,5.4-2.9,10.3-7.6,12.9c-4,2.5-8.4,4.4-12.9,5.8
	c-12.6,3.5-25.9,3.3-38.3-0.7c-5.6-1.9-10.7-4.9-15-9c-4.1-3.9-7.3-8.7-9.3-14C1,84.9-0.1,78.7,0,72.3z M48.9,50.7
	c-6.2,0-10.9,1.8-14.3,5.3c-3.3,3.6-5,9-5,16.2s1.5,12.5,4.7,16.1c3.4,3.8,8.4,5.8,13.5,5.4c1.9,0,3.8-0.3,5.6-1
	c1.4-0.5,2.8-1.2,3.9-2.2V52.9c-2.5-1.4-5.4-2.2-8.3-2.1L48.9,50.7z"/>
</svg>
