<?xml version="1.0" encoding="utf-8"?>
<!-- Generator: Adobe Illustrator 22.1.0, SVG Export Plug-In . SVG Version: 6.00 Build 0)  -->
<svg version="1.1" id="圖層_1" xmlns="http://www.w3.org/2000/svg" xmlns:xlink="http://www.w3.org/1999/xlink" x="0px" y="0px"
	 viewBox="0 0 223 111" style="enable-background:new 0 0 223 111;" xml:space="preserve">
<style type="text/css">
	.st0{fill:#FFFFFF;}
</style>
<title>lollll</title>
<path class="st0" d="M219.7,4.3c0.9,1.6,1.7,3.3,2.1,5.1c0.6,2.2,1,4.4,0.9,6.6c0,4.5-0.9,7.7-2.8,9.6c-2.1,2-4.8,3-7.7,2.9h-36.2
	V48h37.7c1.1,1.5,1.8,3.2,2.3,5c0.6,2.1,1,4.3,0.9,6.6c0,4.4-0.9,7.5-2.9,9.4c-2.1,2-4.8,3-7.7,2.8h-30.2v36.4
	c-1.9,0.4-3.9,0.8-5.9,1c-2.7,0.3-5.3,0.5-8,0.5c-2.3,0-4.7-0.2-7-0.6c-1.8-0.3-3.6-1.1-5.1-2.2c-1.4-1.1-2.5-2.6-3.1-4.3
	c-0.8-2.3-1.1-4.8-1-7.2v-75c-0.6-8.2,5.5-15.3,13.7-16c0.8-0.1,1.6-0.1,2.4,0L219.7,4.3z"/>
<path class="st0" d="M47.8,24.1l39.4,39.4L63.5,87.2L24.1,47.8L47.8,24.1z M85.2,85.2c-3.2,3.3-3.2,8.6,0,11.8l-11.8,11.8
	c-3.3,3.3-8.6,3.3-11.8,0l0,0L2.4,49.8c-3.2-3.3-3.2-8.6,0-11.8l11.8-11.8c3.4,3.2,8.7,3,11.8-0.4c3-3.2,3-8.2,0-11.4L37.9,2.5
	c3.3-3.3,8.6-3.3,11.8,0l0,0l59.1,59.1c3.3,3.3,3.3,8.6,0,11.8l0,0L97.1,85.2C93.8,82,88.5,82,85.2,85.2
	C85.2,85.2,85.2,85.2,85.2,85.2L85.2,85.2z M92.1,66.5c1.6-1.6,1.6-4.3,0-5.9c0,0,0,0,0,0L50.8,19.2c-1.6-1.6-4.3-1.6-5.9,0
	L19.2,44.8c-1.6,1.6-1.6,4.3,0,5.9l41.4,41.4c1.6,1.6,4.3,1.6,5.9,0L92.1,66.5z"/>
</svg>
