<?xml version="1.0" encoding="utf-8"?>
<!-- Generator: Adobe Illustrator 22.1.0, SVG Export Plug-In . SVG Version: 6.00 Build 0)  -->
<svg version="1.1" id="圖層_1" xmlns="http://www.w3.org/2000/svg" xmlns:xlink="http://www.w3.org/1999/xlink" x="0px" y="0px"
	 viewBox="0 0 132 124" style="enable-background:new 0 0 132 124;" xml:space="preserve">
<style type="text/css">
	.st0{fill:#FFFFFF;}
</style>
<title>lollll</title>
<path class="st0" d="M0,15.5c-0.1-4.1,1.5-8.1,4.4-11c6.6-6,16.7-6,23.3,0c5.8,6.2,5.8,15.8,0,22c-6.6,6-16.7,6-23.3,0
	C1.5,23.6-0.1,19.6,0,15.5z M30.7,122.3c-1.3,0.2-3.2,0.6-5.6,0.9c-2.5,0.4-5,0.6-7.5,0.6c-2.3,0-4.6-0.2-6.8-0.5
	c-1.8-0.3-3.6-1-5.1-2.1c-1.4-1.1-2.5-2.5-3.2-4.2c-0.8-2.2-1.2-4.6-1.1-7V39.9C2.7,39.7,4.5,39.4,7,39c2.5-0.4,5-0.6,7.5-0.6
	c2.3,0,4.6,0.2,6.8,0.5c1.8,0.3,3.6,1,5.1,2.1c1.4,1.1,2.5,2.5,3.2,4.2c0.8,2.2,1.2,4.6,1.1,7L30.7,122.3z"/>
<path class="st0" d="M102.4,69.4c0.3-2.9-0.8-5.8-3-7.9c-2.3-1.8-5.3-2.7-8.2-2.5c-2.3,0-4.6,0.3-6.8,0.8c-2.1,0.5-4,1.4-5.8,2.6
	v59.8c-1.8,0.5-3.6,0.8-5.4,1c-2.5,0.3-5.1,0.5-7.7,0.5c-2.3,0-4.6-0.2-6.8-0.5c-1.8-0.3-3.6-1-5.1-2.1c-1.4-1.1-2.5-2.6-3.2-4.2
	c-0.8-2.2-1.2-4.6-1.1-7V58.3c-0.1-2.7,0.6-5.3,2-7.6c1.5-2.1,3.3-3.9,5.4-5.3c4.5-3.1,9.5-5.3,14.7-6.7c6.4-1.8,13-2.7,19.7-2.6
	c13,0,23,2.8,30,8.5c7,5.7,10.5,13.6,10.5,23.7v54c-1.8,0.5-3.6,0.8-5.4,1c-2.5,0.3-5.1,0.5-7.7,0.5c-2.3,0-4.6-0.2-6.8-0.5
	c-1.8-0.3-3.6-1-5.1-2.1c-1.4-1.1-2.5-2.5-3.2-4.2c-0.8-2.2-1.2-4.6-1.1-7L102.4,69.4z"/>
</svg>
