<?xml version="1.0" encoding="utf-8"?>
<!-- Generator: Adobe Illustrator 22.1.0, SVG Export Plug-In . SVG Version: 6.00 Build 0)  -->
<svg version="1.1" id="圖層_1" xmlns="http://www.w3.org/2000/svg" xmlns:xlink="http://www.w3.org/1999/xlink" x="0px" y="0px"
	 viewBox="0 0 241 118" style="enable-background:new 0 0 241 118;" xml:space="preserve">
<style type="text/css">
	.st0{fill:#FFFFFF;}
</style>
<title>lollll</title>
<path class="st0" d="M81.4,100.4c-0.2,4.5-1.9,8.9-4.7,12.4c-2.9,3-7.1,4.6-11.3,4.3c-3.5,0.1-6.9-0.9-9.8-2.7
	c-3.6-2.5-6.7-5.5-9.3-9.1L29.1,84v31.4c-1.3,0.2-3.2,0.6-5.6,0.9c-2.5,0.4-5,0.6-7.5,0.6c-2.3,0-4.6-0.2-6.8-0.5
	c-1.8-0.3-3.5-1.1-5-2.2c-1.4-1.1-2.5-2.5-3.2-4.2c-0.8-2.2-1.2-4.6-1.1-7V3.3c1.9-0.5,3.7-0.8,5.7-1.1c2.5-0.4,5-0.6,7.5-0.6
	c2.3,0,4.6,0.2,6.8,0.5c1.8,0.3,3.6,1,5.1,2.1c1.4,1.1,2.5,2.5,3.2,4.2c0.8,2.2,1.2,4.6,1.1,7v45.5l29.6-30.3
	c5.1-0.3,10.1,1.1,14.4,3.9c3.4,2.2,5.4,6,5.4,10c0,1.6-0.3,3.2-0.9,4.7c-0.7,1.6-1.6,3.1-2.7,4.4c-1.4,1.7-3,3.3-4.7,4.8l-6.6,5.8
	l-10,8.6L81.4,100.4z"/>
<path class="st0" d="M135.7,118.3c-6.4,0.1-12.8-0.9-18.9-2.8c-5.6-1.8-10.7-4.7-15.2-8.5c-4.4-3.9-7.9-8.8-10.2-14.3
	c-2.6-6.4-3.8-13.2-3.7-20.1c-0.2-6.7,1.1-13.4,3.7-19.7c2.3-5.1,5.6-9.7,9.8-13.5c4-3.5,8.7-6.1,13.7-7.8
	c5.1-1.7,10.5-2.5,15.9-2.5c5.7-0.1,11.3,0.9,16.6,2.8c4.7,1.7,9.1,4.3,12.9,7.6c3.6,3.2,6.5,7.1,8.5,11.6c2,4.6,3.1,9.6,3,14.6
	c0.2,3.3-1,6.6-3.3,9c-2.6,2.2-5.8,3.6-9.1,3.9L116.9,85c1.3,3.8,4.1,6.9,7.7,8.5c4.2,1.9,8.8,2.9,13.4,2.8c4.5,0,9-0.6,13.4-1.8
	c3.6-1,7.1-2.4,10.3-4.3c1.9,1.2,3.5,2.9,4.7,4.8c3.7,6,1.8,13.8-4.1,17.4c-0.4,0.2-0.8,0.5-1.2,0.7c-3.9,2-8.1,3.3-12.4,3.9
	C144.4,117.8,140,118.2,135.7,118.3z M130.8,50.6c-2.5-0.1-4.9,0.4-7.2,1.4c-1.9,0.8-3.5,2-4.9,3.5c-1.2,1.4-2.2,3-2.8,4.8
	c-0.6,1.7-1,3.6-1.1,5.4l29.5-4.8c-0.5-2.6-1.9-5-3.8-6.9C137.9,51.6,134.4,50.3,130.8,50.6L130.8,50.6z"/>
<path class="st0" d="M215.3,86.8c-0.2,2.5,0.9,4.9,2.9,6.4c2.4,1.4,5.2,2.1,8,2c1.8,0,3.6-0.1,5.3-0.4c1.6-0.2,3.3-0.6,4.8-1.1
	c1.1,1.3,2,2.7,2.7,4.2c0.8,1.8,1.2,3.7,1.1,5.6c0.1,4.1-1.7,8.1-4.9,10.7c-3.3,2.8-9,4.1-17.3,4.1c-10.1,0-17.9-2.3-23.4-6.9
	c-5.5-4.6-8.2-12.1-8.2-22.4V15.1c1.3-0.3,3.1-0.7,5.4-1.1c2.5-0.4,5-0.6,7.5-0.6c4.1-0.2,8.1,0.7,11.7,2.6
	c2.8,1.8,4.2,5.5,4.2,11.3v11h22.6c0.8,1.5,1.5,3.1,2,4.7c0.6,2,1,4.2,0.9,6.3c0,3.9-0.9,6.9-2.7,8.7c-1.9,1.8-4.5,2.8-7.2,2.7
	h-15.7L215.3,86.8z"/>
</svg>
