<?xml version="1.0" encoding="utf-8"?>
<!-- Generator: Adobe Illustrator 22.1.0, SVG Export Plug-In . SVG Version: 6.00 Build 0)  -->
<svg version="1.1" id="圖層_1" xmlns="http://www.w3.org/2000/svg" xmlns:xlink="http://www.w3.org/1999/xlink" x="0px" y="0px"
	 viewBox="0 0 219 125" style="enable-background:new 0 0 219 125;" xml:space="preserve">
<style type="text/css">
	.st0{fill:#FFFFFF;}
</style>
<title>lollll</title>
<path class="st0" d="M3.2,42.2c-1-1.6-1.7-3.4-2.2-5.2c-0.7-2.2-1-4.6-1-6.9c0-4.5,1-7.7,3-9.6c2.1-2,5-3,7.9-2.9H86
	c1,1.6,1.7,3.4,2.2,5.2c0.7,2.2,1,4.6,1,6.9c0,4.5-1,7.7-3,9.6c-2.1,2-5,3.1-7.9,2.9H59.3v79.6c-1.9,0.5-3.9,0.8-5.9,1
	c-2.7,0.4-5.3,0.5-8,0.5c-2.3,0-4.7-0.2-7-0.6c-1.8-0.3-3.6-1.1-5.1-2.2c-1.4-1.1-2.5-2.6-3.1-4.3c-0.8-2.3-1.1-4.8-1-7.2V42.2
	L3.2,42.2z"/>
<path class="st0" d="M100.1,15.5c-0.1-4.1,1.5-8.1,4.4-11c6.6-6,16.6-6,23.3,0c5.8,6.2,5.8,15.8,0,22c-6.6,6-16.6,6-23.3,0
	C101.6,23.6,100,19.6,100.1,15.5z M130.8,122.3c-1.3,0.2-3.2,0.6-5.6,0.9c-2.5,0.4-5,0.6-7.5,0.6c-2.3,0-4.6-0.2-6.8-0.5
	c-1.8-0.3-3.6-1-5.1-2.1c-1.4-1.1-2.5-2.5-3.2-4.2c-0.8-2.2-1.2-4.6-1.1-7V39.9c1.3-0.2,3.2-0.5,5.6-1c2.5-0.4,5-0.6,7.5-0.6
	c2.3,0,4.6,0.2,6.8,0.5c1.8,0.3,3.6,1,5.1,2.1c1.4,1.1,2.5,2.5,3.2,4.2c0.8,2.2,1.2,4.6,1.1,7V122.3z"/>
<path class="st0" d="M196.6,59.3c-2.8,0-5.6,0.5-8.2,1.4c-2.5,0.9-4.8,2.3-6.7,4.1c-2,1.9-3.5,4.1-4.6,6.6c-1.2,3-1.8,6.1-1.7,9.3
	c0,7.1,2,12.5,6.1,16c4.1,3.6,9.4,5.5,14.9,5.4c3,0.1,6.1-0.3,9-1.2c2.3-0.7,4.5-1.6,6.7-2.6c2.1,1.4,3.8,3.2,5.2,5.3
	c1.2,2.1,1.8,4.4,1.7,6.8c0.1,4.7-2.5,8.9-6.7,11c-4.5,2.6-10.7,3.9-18.6,3.9c-6.7,0.1-13.4-1-19.7-3.2c-5.6-2-10.7-5-15-9
	c-4.2-3.9-7.6-8.6-9.8-13.9c-2.4-5.7-3.5-11.8-3.4-18c-0.1-6.8,1.1-13.6,3.7-19.9c2.3-5.4,5.7-10.1,10.1-14
	c4.3-3.7,9.3-6.5,14.7-8.2c5.7-1.9,11.7-2.8,17.7-2.8c8.3,0,14.7,1.5,19.1,4.5c4.1,2.4,6.7,6.8,6.7,11.6c0,2.1-0.5,4.2-1.6,6.1
	c-1,1.8-2.2,3.5-3.6,4.9c-2.3-1-4.7-1.9-7.1-2.7C202.6,59.7,199.6,59.2,196.6,59.3z"/>
</svg>
